<?xml version="1.0" encoding="UTF-8"?>
<svg width="60px" height="60px" viewBox="0 0 60 60" version="1.1" xmlns="http://www.w3.org/2000/svg" xmlns:xlink="http://www.w3.org/1999/xlink">
    <title>bnb</title>
    <g id="页面-1" stroke="none" stroke-width="1" fill="none" fill-rule="evenodd">
        <g id="bnb" fill-rule="nonzero">
            <rect id="矩形" fill="#000000" x="0" y="0" width="60" height="60" rx="12"></rect>
            <path d="M22.7175,27.0075 L30,19.725 L37.28625,27.01125 L41.52375,22.77375 L30,11.25 L18.48,22.77 L22.7175,27.0075 Z M11.25,30 L15.4875,25.7625 L19.725,30 L15.4875,34.2375 L11.25,30 Z M22.7175,32.9925 L30,40.275 L37.28625,32.98875 L41.52375,37.224375 L30,48.75 L18.48,37.23 L18.474375,37.224375 L22.7175,32.9925 Z M40.275,30 L44.5125,25.7625 L48.75,30 L44.5125,34.2375 L40.275,30 Z M34.2975,29.99625 L34.30125,29.99625 L34.30125,30 L30,34.30125 L25.704375,30.0075 L25.696875,30 L25.704375,29.994375 L26.45625,29.240625 L26.821875,28.875 L30,25.69875 L34.299375,29.998125 L34.2975,29.99625 Z" id="形状" fill="#F1B82D"></path>
        </g>
    </g>
</svg>