<?xml version="1.0" encoding="UTF-8"?>
<svg width="16px" height="12px" viewBox="0 0 16 12" version="1.1" xmlns="http://www.w3.org/2000/svg" xmlns:xlink="http://www.w3.org/1999/xlink">
    <title>已激活</title>
    <g id="页面-1" stroke="none" stroke-width="1" fill="none" fill-rule="evenodd">
        <g id="首页" transform="translate(-24.000000, -176.000000)" fill-rule="nonzero">
            <g id="编组-8" transform="translate(15.000000, 148.000000)">
                <g id="编组-4" transform="translate(1.000000, 22.000000)">
                    <g id="会员" transform="translate(8.000000, 4.000000)">
                        <rect id="矩形" fill="#000000" opacity="0" x="0" y="0" width="16" height="16"></rect>
                        <path d="M0.941176469,5.64705883 L12.5788235,12.2974118 C12.7638824,12.4032794 12.8546466,12.6203352 12.8000355,12.8264234 C12.7454243,13.0325116 12.5590832,13.1761376 12.3458824,13.1764706 L2.71341177,13.1764706 C2.23866392,13.176574 1.83816284,12.8230839 1.77929412,12.352 L0.941176469,5.64705883 Z" id="路径" fill="#F5C164"></path>
                        <path d="M15.0588235,5.64705883 L14.2207059,12.352 C14.1618372,12.8230839 13.7613361,13.176574 13.2865882,13.1764706 L3.65458823,13.1764706 C3.4412125,13.1765636 3.2544778,13.03308 3.19961564,12.8268778 C3.14475348,12.6206756 3.23549569,12.4033665 3.42070587,12.2974118 L15.0588235,5.64705883 Z" id="路径" fill="#F5C164"></path>
                        <path d="M8,3.76470588 L13.1727059,11.7223529 C13.3608137,12.0117408 13.3754306,12.3808775 13.2107939,12.6842331 C13.0461572,12.9875888 12.7286814,13.1764706 12.3835294,13.1764706 L3.61647059,13.1764706 C3.27131861,13.1764706 2.95384282,12.9875888 2.78920612,12.6842331 C2.62456941,12.3808775 2.63918629,12.0117408 2.82729412,11.7223529 L8,3.76470588 Z" id="路径" fill="#FFE09E"></path>
                        <path d="M8,3.76470588 L13.1727059,11.7223529 C13.3608137,12.0117408 13.3754306,12.3808775 13.2107939,12.6842331 C13.0461572,12.9875888 12.7286814,13.1764706 12.3835294,13.1764706 L8,13.1764706 L8,3.76470588 Z" id="路径" fill="#F9CF7E"></path>
                        <path d="M7.05882353,3.29411764 C7.05882353,3.81391505 7.48020259,4.23529411 8,4.23529411 C8.51979741,4.23529411 8.94117647,3.81391505 8.94117647,3.29411764 C8.94117647,2.77432023 8.51979741,2.35294117 8,2.35294117 C7.48020259,2.35294117 7.05882353,2.77432023 7.05882353,3.29411764 L7.05882353,3.29411764 Z" id="路径" fill="#FFE19F"></path>
                        <path d="M14.1176471,5.17647059 C14.1176471,5.51272057 14.2970343,5.82342837 14.5882353,5.99155336 C14.8794363,6.15967835 15.2382108,6.15967835 15.5294118,5.99155336 C15.8206128,5.82342837 16,5.51272057 16,5.17647059 C16,4.65667318 15.5786209,4.23529413 15.0588235,4.23529413 C14.5390261,4.23529413 14.1176471,4.65667318 14.1176471,5.17647059 Z" id="路径" fill="#FFE19F"></path>
                        <path d="M0,5.17647059 C0,5.696268 0.421379058,6.11764706 0.941176469,6.11764706 C1.46097388,6.11764706 1.88235294,5.696268 1.88235294,5.17647059 C1.88235294,4.65667318 1.46097388,4.23529413 0.941176469,4.23529413 C0.421379058,4.23529413 0,4.65667318 0,5.17647059 Z" id="路径" fill="#FFE19F"></path>
                    </g>
                </g>
            </g>
        </g>
    </g>
</svg>