<?xml version="1.0" encoding="UTF-8"?>
<svg width="32px" height="32px" viewBox="0 0 32 32" version="1.1" xmlns="http://www.w3.org/2000/svg" xmlns:xlink="http://www.w3.org/1999/xlink">
    <title>买入</title>
    <g id="买入" stroke="none" stroke-width="1" fill="none" fill-rule="evenodd">
        <circle id="椭圆形" fill="#34C724" cx="16" cy="16" r="16"></circle>
        <path d="M26,26 C26,20.4771525 21.5228475,16 16,16 C10.4771525,16 6,20.4771525 6,26" id="椭圆形" stroke="#FFFFFF" stroke-linecap="round" transform="translate(16.000000, 21.000000) rotate(-180.000000) translate(-16.000000, -21.000000) "></path>
        <g id="进入" transform="translate(16.000000, 12.268688) rotate(-270.000000) translate(-16.000000, -12.268688) translate(7.731312, 4.268688)" fill-rule="nonzero">
            <rect id="矩形" fill="#000000" opacity="0" x="0" y="0" width="16" height="16"></rect>
            <path d="M11.64051,2.97988267 C11.4343731,2.77374578 11.1250787,2.77374578 10.9187636,2.97988267 C10.7126267,3.18601956 10.7126267,3.49531398 10.9187636,3.70145088 L14.7332761,7.30964825 L3.19735132,7.30964825 C2.88805689,7.30964825 2.68192,7.51578514 2.68192,7.82525773 C2.68192,8.13437399 2.88805689,8.34068904 3.19735132,8.34068904 L14.7334542,8.34068904 L10.9189418,11.9488864 C10.7128049,12.1550233 10.7128049,12.4644959 10.9189418,12.6706328 C11.0220993,12.7737903 11.1767465,12.82528 11.2797259,12.82528 C11.3828834,12.82528 11.5375306,12.7737903 11.64051,12.6706328 L16.3827275,8.18622 C16.4858851,8.08306247 16.5373766,7.92841526 16.5373766,7.82543589 C16.5375529,7.72227837 16.4860632,7.56763115 16.3829057,7.46447363 L11.64051,2.97988267 Z" id="路径" fill="#FFFFFF"></path>
        </g>
    </g>
</svg>