<?xml version="1.0" encoding="UTF-8"?>
<svg width="60px" height="60px" viewBox="0 0 60 60" version="1.1" xmlns="http://www.w3.org/2000/svg" xmlns:xlink="http://www.w3.org/1999/xlink">
    <title>close-icon</title>
    <g id="页面-1" stroke="none" stroke-width="1" fill="none" fill-rule="evenodd">
        <g id="close-icon" transform="translate(0.000000, 0.000000)" fill="#282828" fill-rule="nonzero">
            <path d="M35.4968977,29.999822 L58.8596918,6.63631629 C60.3801027,5.11661711 60.3801027,2.65947358 58.8596918,1.13977439 C57.3399926,-0.379924797 54.8828491,-0.379924797 53.3631499,1.13977439 L29.999644,24.5032802 L6.63685011,1.13977439 C5.11643917,-0.379924797 2.66000739,-0.379924797 1.14030821,1.13977439 C-0.380102736,2.65947358 -0.380102736,5.11661711 1.14030821,6.63631629 L24.5031023,29.999822 L1.14030821,53.3633278 C-0.380102736,54.883027 -0.380102736,57.3401705 1.14030821,58.8598697 C1.89766647,59.6179397 2.89347874,59.9987543 3.88857925,59.9987543 C4.88367958,59.9987543 5.87878009,59.6179397 6.63685011,58.8598697 L29.999644,35.4963639 L53.3631499,58.8598697 C54.1212199,59.6179397 55.1163204,59.9987543 56.1114209,59.9987543 C57.1065213,59.9987543 58.1016216,59.6179397 58.8596918,58.8598697 C60.3801027,57.3401705 60.3801027,54.883027 58.8596918,53.3633278 L35.4968977,29.999822 Z" id="路径"></path>
        </g>
    </g>
</svg>