<?xml version="1.0" encoding="UTF-8"?>
<svg width="16px" height="16px" viewBox="0 0 16 16" version="1.1" xmlns="http://www.w3.org/2000/svg" xmlns:xlink="http://www.w3.org/1999/xlink">
    <title>copy-icon</title>
    <g id="页面-1" stroke="none" stroke-width="1" fill="none" fill-rule="evenodd">
        <g id="copy-icon" fill-rule="nonzero">
            <rect id="矩形" fill="#000000" opacity="0" x="0" y="0" width="16" height="16"></rect>
            <path d="M14,2.66666667 L4.66666667,2.66666667 C3.56666667,2.66666667 2.66666667,3.56666667 2.66666667,4.66666667 L2.66666667,14 C2.66666667,15.1 3.56666667,16 4.66666667,16 L14,16 C15.1,16 16,15.1 16,14 L16,4.66666667 C16,3.56666667 15.1,2.66666667 14,2.66666667 M14,4 C14.3613333,4 14.6666667,4.30533333 14.6666667,4.66666667 L14.6666667,14 C14.6666667,14.3613333 14.3613333,14.6666667 14,14.6666667 L4.66666667,14.6666667 C4.30533334,14.6666667 4,14.3613333 4,14 L4,4.66666667 C4,4.30533334 4.30533333,4 4.66666667,4 L14,4 M2.66666667,12 L2,12 C1.63866667,12 1.33333333,11.6946667 1.33333333,11.3333333 L1.33333333,2 C1.33333333,1.63866667 1.63866666,1.33333333 2,1.33333333 L11.3333333,1.33333333 C11.6946667,1.33333333 12,1.63866666 12,2 L12,2.664 L13.3333333,2.664 L13.3333333,2 C13.3333333,0.9 12.4333333,0 11.3333333,0 L2,0 C0.9,0 0,0.9 0,2 L0,11.3333333 C0,12.4333333 0.9,13.3333333 2,13.3333333 L2.66666667,13.3333333 L2.66666667,12 Z M8.66666667,12 L8.66666667,6.66666667 C8.66666667,6.3 8.96666667,6 9.33333333,6 C9.69999998,6 10,6.3 10,6.66666667 L10,12 C10,12.3666667 9.7,12.6666667 9.33333333,12.6666667 C8.96666666,12.6666667 8.66666667,12.3666667 8.66666667,12 M12,10 L6.66666667,10 C6.3,10 6,9.7 6,9.33333333 C6,8.96666666 6.3,8.66666667 6.66666667,8.66666667 L12,8.66666667 C12.3666667,8.66666667 12.6666667,8.96666667 12.6666667,9.33333333 C12.6666667,9.69999998 12.3666667,10 12,10" id="形状" fill="#1D1D3D" opacity="0.699999988"></path>
        </g>
    </g>
</svg>