<?xml version="1.0" encoding="UTF-8"?>
<svg width="24px" height="24px" viewBox="0 0 24 24" version="1.1" xmlns="http://www.w3.org/2000/svg" xmlns:xlink="http://www.w3.org/1999/xlink">
    <title>lang-en</title>
    <g id="页面-1" stroke="none" stroke-width="1" fill="none" fill-rule="evenodd">
        <g id="lang-en" fill-rule="nonzero">
            <rect id="矩形" fill="#000000" opacity="0" x="0" y="0" width="24" height="24"></rect>
            <path d="M19.7679802,22.829 L4.30281985,22.829 C2.37622443,22.829 0.809690076,21.2624656 0.809690076,19.3358702 L0.809690076,4.32212977 C0.809690076,2.39553435 2.37622443,0.829 4.30281985,0.829 L19.7679802,0.829 C21.6945756,0.829 23.2611099,2.39553435 23.2611099,4.32212977 L23.2611099,19.3358702 C23.2611099,21.2611221 21.6945756,22.829 19.7679802,22.829 Z M4.62223363,2.829 C3.62788658,2.829 2.8190136,3.63787299 2.8190136,4.63222004 L2.8190136,19.02578 C2.8190136,20.020127 3.62788658,20.829 4.62223363,20.829 L19.4485664,20.829 C20.4429134,20.829 21.2517864,20.020127 21.2517864,19.02578 L21.2517864,4.63222004 C21.2517864,3.63787299 20.4429134,2.829 19.4485664,2.829 L4.62223363,2.829 Z" id="形状" fill="#242448"></path>
            <path d="M10.6644,12.8688 C11.0616,12.8688 11.3844,12.546 11.3844,12.1488 C11.3844,11.7516 11.0616,11.4288 10.6644,11.4288 L7.1112,11.4288 L7.1112,9.7044 L10.6656,9.7044 C11.0628,9.7044 11.3856,9.3816 11.3856,8.9844 C11.3856,8.5872 11.0628,8.2644 10.6656,8.2644 L6.3912,8.2644 C5.994,8.2644 5.6712,8.5872 5.6712,8.9844 L5.6712,15.2196 C5.6712,15.6168 5.994,15.9396 6.3912,15.9396 L10.6656,15.9396 C11.0628,15.9396 11.3856,15.6168 11.3856,15.2196 C11.3856,14.8224 11.0628,14.4996 10.6656,14.4996 L7.1112,14.4996 L7.1112,12.8688 L10.6644,12.8688 Z M13.4064,16.0008 C13.0092,16.0008 12.6864,15.678 12.6864,15.2808 L12.6864,9.138 C12.6864,8.8248 12.8892,8.5464 13.188,8.4516 C13.4868,8.3568 13.8132,8.466 13.9944,8.7216 L16.9152,12.8484 L16.9152,8.9844 C16.9152,8.5872 17.238,8.2644 17.6352,8.2644 C18.0324,8.2644 18.3552,8.5872 18.3552,8.9844 L18.3552,15.1116 C18.3552,15.4248 18.1524,15.7032 17.8536,15.798 C17.5548,15.8928 17.2284,15.7836 17.0472,15.528 L14.1264,11.4012 L14.1264,15.2808 C14.1264,15.678 13.8048,16.0008 13.4064,16.0008 L13.4064,16.0008 Z" id="形状" fill="#242448"></path>
        </g>
    </g>
</svg>