<?xml version="1.0" encoding="UTF-8"?>
<svg width="24px" height="24px" viewBox="0 0 24 24" version="1.1" xmlns="http://www.w3.org/2000/svg" xmlns:xlink="http://www.w3.org/1999/xlink">
    <title>lang-zh</title>
    <g id="页面-1" stroke="none" stroke-width="1" fill="none" fill-rule="evenodd">
        <g id="lang-zh" fill-rule="nonzero">
            <rect id="矩形" fill="#000000" opacity="0" x="0" y="0" width="24" height="24"></rect>
            <path d="M19.7679802,22.829 L4.30281985,22.829 C2.37622443,22.829 0.809690076,21.2624656 0.809690076,19.3358702 L0.809690076,4.32212977 C0.809690076,2.39553435 2.37622443,0.829 4.30281985,0.829 L19.7679802,0.829 C21.6945756,0.829 23.2611099,2.39553435 23.2611099,4.32212977 L23.2611099,19.3358702 C23.2611099,21.2611221 21.6945756,22.829 19.7679802,22.829 Z M4.62223363,2.829 C3.62788658,2.829 2.8190136,3.63787299 2.8190136,4.63222004 L2.8190136,19.02578 C2.8190136,20.020127 3.62788658,20.829 4.62223363,20.829 L19.4485664,20.829 C20.4429134,20.829 21.2517864,20.020127 21.2517864,19.02578 L21.2517864,4.63222004 C21.2517864,3.63787299 20.4429134,2.829 19.4485664,2.829 L4.62223363,2.829 Z" id="形状" fill="#242448"></path>
            <text id="CH" fill="#242448" font-family="ArialRoundedMTBold, Arial Rounded MT Bold" font-size="10" font-weight="normal">
                <tspan x="4.5" y="16">CH</tspan>
            </text>
        </g>
    </g>
</svg>