<?xml version="1.0" standalone="no"?><!DOCTYPE svg PUBLIC "-//W3C//DTD SVG 1.1//EN" "http://www.w3.org/Graphics/SVG/1.1/DTD/svg11.dtd"><svg t="1650184573294" class="icon" viewBox="0 0 1024 1024" version="1.1" xmlns="http://www.w3.org/2000/svg" p-id="3461" xmlns:xlink="http://www.w3.org/1999/xlink" width="200" height="200"><defs><style type="text/css"></style></defs><path d="M945.7 408.3L517.3 881.7c-1.4 1.5-3.3 2.3-5.3 2.3s-4-0.9-5.3-2.3L78.4 408.3c-2.3-2.6-2.5-6.4-0.4-9.2l198.1-256.4c1.4-1.7 3.5-2.8 5.7-2.8h460.4c2.2 0 4.3 1 5.7 2.8L946 399.2c2.1 2.7 2 6.5-0.3 9.1z m60.8-55.8L808.4 96.1a84.356 84.356 0 0 0-66.2-32.5H281.8c-25.9 0.1-50.3 12.1-66.2 32.5L17.5 352.5c-24.8 32-23 77.1 4.2 107.1L450 932.9c15.9 17.5 38.4 27.5 62.1 27.5 23.6 0 46.2-10 62.1-27.5l428.3-473.3c27.1-30 28.8-75.2 4-107.1z" p-id="3462" fill="#1D1D3D"></path><path d="M571.6 437.6s3.8 137.7 0 137.7H473c-3.8 0 0-137.7 0-137.7H359l-1.9-1.9c-3.4-3.4-3.4-8.6 0-11.7l160.8-160.8c3.4-3.4 8.6-3.4 11.8 0L690.5 424c3.4 3.4 3.4 8.6 0 11.7l-1.9 1.9h-117zM492.7 693.6h59.2v39.5h-59.2zM473 615.1h98.6v39H473z" p-id="3463" fill="#1D1D3D"></path></svg>