<?xml version="1.0" encoding="UTF-8"?>
<svg width="150px" height="150px" viewBox="0 0 150 150" version="1.1" xmlns="http://www.w3.org/2000/svg" xmlns:xlink="http://www.w3.org/1999/xlink">
    <title>menu-swap</title>
    <g id="页面-1" stroke="none" stroke-width="1" fill="none" fill-rule="evenodd">
        <g id="menu-swap" fill="#1D1D3D" fill-rule="nonzero">
            <path d="M137.5,106.25 L37.5,106.25 C34.0625,106.25 31.25,103.4375 31.25,100 C31.25,96.5625 34.0625,93.75 37.5,93.75 L137.5,93.75 L137.5,12.5 L50,12.5 L50,18.75 C50,22.1875 47.1875,25 43.75,25 C40.3125,25 37.5,22.1875 37.5,18.75 L37.5,12.5 C37.5,5.625 43.125,0 50,0 L137.5,0 C144.375,0 150,5.625 150,12.5 L150,93.75 C150,100.625 144.375,106.25 137.5,106.25 Z" id="路径"></path>
            <path d="M56.25,125 C54.6875,125 53.046875,124.375 51.796875,123.203125 L33.046875,104.453125 C30.625,102.03125 30.625,98.046875 33.046875,95.625 L51.796875,76.875 C54.21875,74.453125 58.203125,74.453125 60.625,76.875 C63.046875,79.296875 63.046875,83.28125 60.625,85.703125 L46.328125,100 L60.625,114.296875 C63.046875,116.71875 63.046875,120.703125 60.625,123.125 C59.453125,124.375 57.8125,125 56.25,125 L56.25,125 Z" id="路径"></path>
            <path d="M100,150 L12.5,150 C5.625,150 0,144.375 0,137.5 L0,56.25 C0,49.375 5.625,43.75 12.5,43.75 L112.5,43.75 C115.9375,43.75 118.75,46.5625 118.75,50 C118.75,53.4375 115.9375,56.25 112.5,56.25 L12.5,56.25 L12.5,137.5 L100,137.5 L100,131.25 C100,127.8125 102.8125,125 106.25,125 C109.6875,125 112.5,127.8125 112.5,131.25 L112.5,137.5 C112.5,144.375 106.875,150 100,150 Z" id="路径"></path>
            <path d="M93.75,75 C92.1875,75 90.546875,74.375 89.296875,73.203125 C86.875,70.78125 86.875,66.796875 89.296875,64.375 L103.671875,50 L89.375,35.703125 C86.953125,33.28125 86.953125,29.296875 89.375,26.875 C91.796875,24.453125 95.78125,24.453125 98.203125,26.875 L116.953125,45.625 C119.375,48.046875 119.375,52.03125 116.953125,54.453125 L98.203125,73.203125 C96.953125,74.375 95.3125,75 93.75,75 Z" id="路径"></path>
        </g>
    </g>
</svg>