<?xml version="1.0" encoding="UTF-8"?>
<svg width="175px" height="175px" viewBox="0 0 175 175" version="1.1" xmlns="http://www.w3.org/2000/svg" xmlns:xlink="http://www.w3.org/1999/xlink">
    <title>menu-about</title>
    <g id="页面-1" stroke="none" stroke-width="1" fill="none" fill-rule="evenodd">
        <g id="menu-about" fill="#1D1D3D" fill-rule="nonzero">
            <path d="M94.1125,112.5 C94.03125,112.5 93.95625,112.5 93.875,112.5 C90.5125,112.5 87.40625,109.9375 85.11875,107.43125 L77.89375,98.95625 C75.56875,96.40625 75.75625,92.18125 78.30625,89.8625 C80.8625,87.53125 84.8125,87.5875 87.1375,90.1375 L94.3625,98 L128.24375,63.0125 L118.5,52.4375 L104.4375,66.91875 C102,69.36875 98.05,69.39375 95.6,66.95625 C93.14375,64.53125 93.125,60.56875 95.55,58.11875 L109.89375,43.63125 C112.2625,41.2375 115.55625,40.05 118.7625,39.96875 C122.11875,40 125.24375,41.36875 127.5625,43.8125 L137.30625,54.06875 C141.96875,58.975 141.9,66.90625 137.1625,71.7375 L102.7875,107.7625 C100.44375,110.13125 97.38125,112.5 94.1125,112.5 Z" id="路径"></path>
            <path d="M56.24375,134.88125 C53.05625,134.88125 49.86875,133.7 47.4375,131.325 L37.5875,121.7125 C35.2,119.38125 33.86875,116.25625 33.8371392,112.9125 C33.8125,109.5625 35.0875,106.4125 37.44375,104.0375 L72.4125,67.49375 C74.7625,65.125 77.9,62.5 81.24375,62.5 C81.25,62.5 81.2625,62.5 81.275,62.5 C84.6125,62.5 87.74375,65.10625 90.09375,67.45625 L98.1625,76.18125 C100.60625,78.625 100.60625,82.90625 98.1625,85.34375 C95.71875,87.7875 91.76875,87.95 89.325,85.50625 L81.25625,77.51875 L46.325,112.79375 L56.16875,122.35625 L70.80625,108.03125 C73.26875,105.60625 77.2125,105.625 79.65,108.0875 C82.075,110.54375 82.05625,114.5 79.60625,116.925 L65.11875,131.2625 C62.675,133.66875 59.45625,134.88125 56.24375,134.88125 Z" id="路径"></path>
            <path d="M87.5,175 C39.25,175 0,135.75 0,87.5 C0,39.25 39.25,0 87.5,0 C135.75,0 175,39.25 175,87.5 C175,135.75 135.75,175 87.5,175 Z M87.5,12.5 C46.14375,12.5 12.5,46.14375 12.5,87.5 C12.5,128.85625 46.14375,162.5 87.5,162.5 C128.85625,162.5 162.5,128.85625 162.5,87.5 C162.5,46.14375 128.85625,12.5 87.5,12.5 Z" id="形状"></path>
        </g>
    </g>
</svg>