<?xml version="1.0" encoding="UTF-8"?>
<svg width="175px" height="175px" viewBox="0 0 175 175" version="1.1" xmlns="http://www.w3.org/2000/svg" xmlns:xlink="http://www.w3.org/1999/xlink">
    <title>menu-help</title>
    <g id="页面-1" stroke="none" stroke-width="1" fill="none" fill-rule="evenodd">
        <g id="menu-help" fill="#1D1D3D" fill-rule="nonzero">
            <path d="M25,0 L149.9625,0 C163.769619,0 174.9625,11.1928813 174.9625,25 L174.9625,125.25 C174.9625,139.057119 163.769619,150.25 149.9625,150.25 L117.75,150.25 L97.1875,170.7 C91.8181372,176.044335 83.1374758,176.038745 77.775,170.6875 L57.3,150.2375 L25,150.2375 C11.1928813,150.2375 0,139.044619 0,125.2375 L0,25 C0,11.1928813 11.1928813,0 25,0 Z M25,12.5 C18.0964406,12.5 12.5,18.0964406 12.5,25 L12.5,125.25 C12.5,132.153559 18.0964406,137.75 25,137.75 L57.3,137.75 C60.607022,137.747383 63.7803217,139.055358 66.125,141.3875 L86.6125,161.8375 C87.0985544,162.313929 87.8764456,162.313929 88.3625,161.8375 L108.925,141.375 C111.271715,139.047439 114.444765,137.744061 117.75,137.75 L149.9625,137.75 C156.866059,137.75 162.4625,132.153559 162.4625,125.25 L162.4625,25 C162.4625,18.0964406 156.866059,12.5 149.9625,12.5 L25,12.5 Z M72.3375,58.85 C72.3375,62.3017797 69.5392797,65.1 66.0875,65.1 C62.6357203,65.1 59.8375,62.3017797 59.8375,58.85 C59.8375,42.05 72.175,31.375 87.6,31.65 C102.8125,31.9 115.15,42.725 115.15,58.85 C115.15,69.475 111.675,74.725 103.4875,80.7625 L101.9375,81.9125 C95.825,86.4625 93.7375,90.1 93.7375,100.075 C93.7375,103.52678 90.9392797,106.325 87.4875,106.325 C84.0357203,106.325 81.2375,103.52678 81.2375,100.075 C81.2375,85.8625 85.3625,78.6625 94.4625,71.8875 L96.075,70.7 C101.375,66.8 102.65,64.85 102.65,58.85 C102.65,49.9875 96.15,44.3 87.3875,44.15 C78.6125,43.9875 72.3375,49.425 72.3375,58.85 L72.3375,58.85 Z M87.4625,125.125 C84.0107203,125.125 81.2125,122.32678 81.2125,118.875 C81.2125,115.42322 84.0107203,112.625 87.4625,112.625 C90.9142797,112.625 93.7125,115.42322 93.7125,118.875 C93.7125,122.32678 90.9142797,125.125 87.4625,125.125 Z" id="形状"></path>
        </g>
    </g>
</svg>