<?xml version="1.0" standalone="no"?><!DOCTYPE svg PUBLIC "-//W3C//DTD SVG 1.1//EN" "http://www.w3.org/Graphics/SVG/1.1/DTD/svg11.dtd"><svg t="1650118574217" class="icon" viewBox="0 0 1024 1024" version="1.1" xmlns="http://www.w3.org/2000/svg" p-id="57040" xmlns:xlink="http://www.w3.org/1999/xlink" width="200" height="200"><defs><style type="text/css"></style></defs><path d="M285.44 26.548h-80.877c-98.158 0-178.016 79.857-178.016 178.016v80.925c0 98.11 79.857 177.967 178.016 177.967h210.347c26.797 0 48.545-21.748 48.545-48.545v-210.347c0-98.158-79.857-178.016-178.016-178.016zM366.365 366.365h-161.802c-44.613 0-80.925-36.313-80.925-80.925v-80.877c0-44.613 36.313-80.925 80.925-80.925h80.925c44.564 0 80.877 36.313 80.877 80.925v161.802z" p-id="57041" fill="#1D1D3D"></path><path d="M414.91 560.545h-210.347c-98.158 0-178.016 79.857-178.016 178.016v80.925c0 98.11 79.857 177.967 178.016 177.967h80.925c98.11 0 177.967-79.857 177.967-178.016v-210.347c0-26.797-21.748-48.545-48.545-48.545zM366.365 819.437c0 44.613-36.313 80.925-80.925 80.925h-80.877c-44.613 0-80.925-36.313-80.925-80.925v-80.925c0-44.564 36.313-80.877 80.925-80.877h161.802v161.802z" p-id="57042" fill="#1D1D3D"></path><path d="M819.437 560.545h-210.347c-26.846 0-48.545 21.748-48.545 48.545v210.347c0 98.158 79.857 178.016 178.016 178.016h80.877c98.158 0 178.016-79.857 178.016-178.016v-80.925c0-98.11-79.857-177.967-178.016-177.967zM900.362 819.437c0 44.613-36.313 80.925-80.925 80.925h-80.877c-44.613 0-80.925-36.313-80.925-80.925v-161.802h161.802c44.613 0 80.925 36.313 80.925 80.925v80.877z" p-id="57043" fill="#1D1D3D"></path><path d="M819.437 26.548h-80.877c-98.158 0-178.016 79.857-178.016 178.016v210.347c0 26.797 21.699 48.545 48.545 48.545h210.347c98.158 0 178.016-79.857 178.016-178.016v-80.877c0-98.158-79.857-178.016-178.016-178.016zM900.362 285.44c0 44.613-36.313 80.925-80.925 80.925h-161.802v-161.802c0-44.613 36.313-80.925 80.925-80.925h80.877c44.613 0 80.925 36.313 80.925 80.925v80.877z" p-id="57044" fill="#1D1D3D"></path></svg>