<?xml version="1.0" encoding="UTF-8"?>
<svg width="168px" height="152px" viewBox="0 0 168 152" version="1.1" xmlns="http://www.w3.org/2000/svg" xmlns:xlink="http://www.w3.org/1999/xlink">
    <title>menu-team</title>
    <g id="页面-1" stroke="none" stroke-width="1" fill="none" fill-rule="evenodd">
        <g id="menu-team" transform="translate(0.416667, 0.975000)" fill="#1D1D3D" fill-rule="nonzero">
            <path d="M106.25,100 C114.3,100 120.833333,106.533333 120.833333,114.583333 L120.825,122.6 C121.8,140.85 108.233333,150.075 83.8916668,150.075 C59.6416668,150.075 45.8333334,140.991667 45.8333334,122.916667 L45.8333334,114.583333 C45.8333334,106.533333 52.3666668,100 60.4166668,100 L106.25,100 L106.25,100 Z M106.25,112.5 L60.4166668,112.5 C59.2660735,112.5 58.3333334,113.43274 58.3333334,114.583333 L58.3333334,122.916667 C58.3333334,132.716667 65.725,137.575 83.8916668,137.575 C101.958333,137.575 108.85,132.875 108.333333,122.933333 L108.333333,114.583333 C108.333333,113.43274 107.400593,112.5 106.25,112.5 L106.25,112.5 Z M14.5833334,58.3333334 L51.05,58.3333334 C50.0000304,62.4127668 49.731417,66.6540306 50.2583334,70.8333334 L14.5833334,70.8333334 C13.4327402,70.8333334 12.5,71.7660734 12.5,72.9166666 L12.5,81.25 C12.5,91.05 19.8916666,95.9083334 38.0583334,95.9083334 C41.9083334,95.9083334 45.25,95.6916668 48.1166668,95.2666666 C43.3485747,98.2874176 39.8667299,102.965497 38.3416668,108.4 L38.0583334,108.408333 C13.8083334,108.408333 -3.55271368e-15,99.325 -3.55271368e-15,81.25 L-3.55271368e-15,72.9166666 C-3.55271368e-15,64.8666666 6.5333334,58.3333334 14.5833334,58.3333334 L14.5833334,58.3333334 Z M152.083333,58.3333334 C160.133333,58.3333334 166.666667,64.8666668 166.666667,72.9166666 L166.658333,80.9333334 C167.633333,99.1833334 154.066667,108.408333 129.725,108.408333 L128.316667,108.391667 C126.745313,102.80861 123.119057,98.0271919 118.166667,95.0083334 C121.391667,95.6083334 125.225,95.9083334 129.725,95.9083334 C147.791667,95.9083334 154.683333,91.2083334 154.166667,81.2666666 L154.166667,72.9166666 C154.166667,71.7660734 153.233927,70.8333334 152.083333,70.8333334 L116.416667,70.8333334 C116.932293,66.6532494 116.660954,62.4135829 115.616667,58.3333334 L152.083333,58.3333334 L152.083333,58.3333334 Z M83.3333334,41.6666666 C97.1404521,41.6666666 108.333333,52.8595479 108.333333,66.6666666 C108.333333,80.4737853 97.1404521,91.6666666 83.3333334,91.6666666 C69.5262147,91.6666666 58.3333334,80.4737853 58.3333334,66.6666666 C58.3333334,52.8595479 69.5262147,41.6666666 83.3333334,41.6666666 Z M83.3333334,54.1666666 C76.429774,54.1666666 70.8333334,59.7631072 70.8333334,66.6666666 C70.8333334,73.570226 76.429774,79.1666666 83.3333334,79.1666666 C90.2368928,79.1666666 95.8333334,73.570226 95.8333334,66.6666666 C95.8333334,59.7631072 90.2368928,54.1666666 83.3333334,54.1666666 L83.3333334,54.1666666 Z M37.5,0 C51.3071187,0 62.5,11.1928813 62.5,25 C62.5,38.8071187 51.3071187,50 37.5,50 C23.6928813,50 12.5,38.8071187 12.5,25 C12.5,11.1928813 23.6928813,0 37.5,0 Z M129.166667,0 C142.973786,0 154.166667,11.1928813 154.166667,25 C154.166667,38.8071187 142.973786,50 129.166667,50 C115.359548,50 104.166667,38.8071187 104.166667,25 C104.166667,11.1928813 115.359548,0 129.166667,0 Z M37.5,12.5 C30.5964406,12.5 25,18.0964406 25,25 C25,31.9035594 30.5964406,37.5 37.5,37.5 C44.4035594,37.5 50,31.9035594 50,25 C50,18.0964406 44.4035594,12.5 37.5,12.5 Z M129.166667,12.5 C122.263107,12.5 116.666667,18.0964406 116.666667,25 C116.666667,31.9035594 122.263107,37.5 129.166667,37.5 C136.070226,37.5 141.666667,31.9035594 141.666667,25 C141.666667,18.0964406 136.070226,12.5 129.166667,12.5 Z" id="形状"></path>
        </g>
    </g>
</svg>