<?xml version="1.0" standalone="no"?><!DOCTYPE svg PUBLIC "-//W3C//DTD SVG 1.1//EN" "http://www.w3.org/Graphics/SVG/1.1/DTD/svg11.dtd"><svg t="1650117594666" class="icon" viewBox="0 0 1024 1024" version="1.1" xmlns="http://www.w3.org/2000/svg" p-id="6409" xmlns:xlink="http://www.w3.org/1999/xlink" width="200" height="200"><defs><style type="text/css"></style></defs><path d="M882.048 42.688c37.12 0 67.264 30.016 67.264 67.072V579.2a67.2 67.2 0 0 1-67.2 67.072h-32.64v83.584a42.112 42.112 0 0 1-65.92 34.496l-171.456-118.08h-310.4a67.2 67.2 0 0 1-67.2-67.072V365.44H150.272v414.976h99.84v95.04l138.112-95.04H714.496a37.76 37.76 0 0 1 0 75.456H411.904l-171.392 118.016a42.112 42.112 0 0 1-65.92-33.856v-84.16h-32.64a67.2 67.2 0 0 1-67.264-65.92V327.68a37.76 37.76 0 0 1 37.824-37.76h121.92V109.824c0-37.12 30.144-67.072 67.328-67.072h580.288z m-8.384 75.456H310.144v452.672h325.568l138.048 95.104V570.816h99.84V118.144z m-89.92 197.76a37.632 37.632 0 0 1 11.328 52.16C748.8 439.68 682.752 482.432 610.048 482.432c-70.464 0-134.784-40.192-180.928-108.16a37.632 37.632 0 0 1 10.176-52.416 37.952 37.952 0 0 1 52.48 10.112C524.8 380.608 567.04 407.04 610.112 407.04c44.48 0 88.064-28.16 121.408-79.808a37.888 37.888 0 0 1 52.288-11.264z" p-id="6410" fill="#1D1D3D"></path></svg>