<?xml version="1.0" encoding="UTF-8"?>
<svg width="175px" height="175px" viewBox="0 0 175 175" version="1.1" xmlns="http://www.w3.org/2000/svg" xmlns:xlink="http://www.w3.org/1999/xlink">
    <title>menu-fund</title>
    <g id="页面-1" stroke="none" stroke-width="1" fill="none" fill-rule="evenodd">
        <g id="menu-fund" fill="#000000" fill-rule="nonzero">
            <path d="M21.0526254,109.576161 L50.8201011,79.808685 L75.5650811,104.562415 L103.188808,76.9386872 L87.5000713,61.2499501 L131.250036,61.2499501 L131.250036,104.999914 L115.561298,89.3111772 L75.5650811,129.307395 L50.8201011,104.562415 L29.1638688,126.209897 C49.5624213,156.911961 90.2751196,166.534518 122.260407,148.213517 C154.245694,129.892516 166.542734,89.9062659 150.379689,56.7781265 C134.216643,23.649987 95.1323253,8.73243108 61.0067199,22.6665872 C26.8811145,36.6007432 9.40850989,74.6116035 21.0526254,109.584911 L21.0526254,109.576161 Z M7.59513647,123.20865 L7.50763648,123.12115 L7.54263652,123.08615 C2.55451602,111.886281 -0.0155713525,99.7603589 7.09756413e-05,87.4999287 C7.09756413e-05,39.1737181 39.1738607,0 87.500071,0 C135.826282,0 175,39.1737181 175,87.4999287 C175,135.826139 135.826282,174.999857 87.500071,174.999857 C51.8876004,174.999857 21.2626253,153.737375 7.59513647,123.20865 Z" id="形状"></path>
        </g>
    </g>
</svg>