<?xml version="1.0" standalone="no"?><!DOCTYPE svg PUBLIC "-//W3C//DTD SVG 1.1//EN" "http://www.w3.org/Graphics/SVG/1.1/DTD/svg11.dtd"><svg t="1650117809098" class="icon" viewBox="0 0 1024 1024" version="1.1" xmlns="http://www.w3.org/2000/svg" p-id="2405" xmlns:xlink="http://www.w3.org/1999/xlink" width="200" height="200"><defs><style type="text/css"></style></defs><path d="M421.546667 473.173333a149.546667 149.546667 0 0 1 0 77.674667l225.984 169.472a149.333333 149.333333 0 1 1-45.098667 72.853333l-225.962667-169.493333a149.333333 149.333333 0 1 1 0-223.36l225.962667-169.472a149.333333 149.333333 0 1 1 45.098667 72.853333l-225.962667 169.450667zM746.666667 256a64 64 0 1 0 0-128 64 64 0 0 0 0 128z m0 640a64 64 0 1 0 0-128 64 64 0 0 0 0 128zM277.333333 576a64 64 0 1 0 0-128 64 64 0 0 0 0 128z" p-id="2406" fill="#1D1D3D"></path></svg>