<?xml version="1.0" encoding="UTF-8"?>
<svg width="181px" height="181px" viewBox="0 0 181 181" version="1.1" xmlns="http://www.w3.org/2000/svg" xmlns:xlink="http://www.w3.org/1999/xlink">
    <title>menu-markets</title>
    <g id="页面-1" stroke="none" stroke-width="1" fill="none" fill-rule="evenodd">
        <g id="menu-markets" fill="#1D1D3D" fill-rule="nonzero">
            <path d="M90.4454545,0 C95.0327716,-0.0166180026 98.8327083,3.55599435 99.0986847,8.1356246 C99.3646611,12.7152549 96.0038595,16.7037496 91.4454545,17.21824 L90.4454545,17.2727855 L46.6181818,17.2727855 C31.0567491,17.2718626 18.200382,29.4181976 17.3181818,44.9546036 L17.2636363,46.627331 L17.2636363,134.281876 C17.2627134,149.843309 29.4090484,162.699676 44.9454545,163.581876 L46.6181818,163.636422 L134.272727,163.636422 C149.83416,163.637345 162.690527,151.49101 163.572727,135.954604 L163.627273,134.281876 L163.627273,90.4546036 C163.610597,85.8672865 167.183209,82.0673499 171.762839,81.8013734 C176.342469,81.535397 180.330964,84.8961986 180.845454,89.4546036 L180.9,90.4546036 L180.9,134.281876 C180.9,159.372785 161.081818,179.836422 136.245454,180.872785 L134.272727,180.909149 L46.6272727,180.909149 C21.5363635,180.909149 1.07272715,161.090967 0.0363636719,136.254604 L0,134.281876 L0,46.6364218 C0,21.5455126 19.8181818,1.08187631 44.6545453,0.045512829 L46.6272727,0.00914915714 L90.4454545,0.00914915714 L90.4454545,0 Z" id="路径"></path>
            <path d="M148.9,5.81415167e-05 C137.467501,0.00168188982 126.904303,6.10234796 121.189459,16.0039944 C115.474616,25.9056409 115.476349,38.1039722 121.194005,48.0039947 C126.911661,57.9040173 137.476592,64.0016822 148.909091,64.0000581 C166.582203,64.0000581 180.909091,49.6731701 180.909091,32.0000581 C180.909091,14.3269461 166.582203,5.81415167e-05 148.909091,5.81415167e-05 L148.9,5.81415167e-05 Z M148.9,17.2727855 C157.033648,17.2727855 163.627273,23.8664101 163.627273,32.0000582 C163.627273,40.1337064 157.033648,46.727331 148.9,46.727331 C140.766352,46.727331 134.172727,40.1337064 134.172727,32.0000582 C134.172727,23.8664101 140.766352,17.2727855 148.9,17.2727855 Z M113.7,67.4364218 C116.422945,63.7366858 121.565618,62.8159656 125.403046,65.3411629 C129.240474,67.8663601 130.429592,72.9536782 128.109091,76.91824 L127.509091,77.827331 L102.172727,111.500058 C99.4877685,115.074816 94.5184831,116.009515 90.7181818,113.654604 L89.8090908,113.000058 L74.1727271,100.245513 L58.9727271,117.427331 C56.0910962,120.688986 51.2326821,121.296775 47.6363637,118.845513 L46.7818182,118.181876 C43.5150035,115.299163 42.9069301,110.434575 45.3636363,106.836422 L46.0272727,105.981876 L66.7363637,82.5727855 C69.517275,79.425023 74.1596205,78.7344261 77.7363637,80.9364218 L78.6727271,81.6000581 L93.7636363,93.927331 L113.7,67.4364218 L113.7,67.4364218 Z" id="形状"></path>
        </g>
    </g>
</svg>