<?xml version="1.0" encoding="UTF-8"?>
<svg width="24px" height="24px" viewBox="0 0 24 24" version="1.1" xmlns="http://www.w3.org/2000/svg" xmlns:xlink="http://www.w3.org/1999/xlink">
    <title>刷新</title>
    <g id="刷新" stroke="none" stroke-width="1" fill="none" fill-rule="evenodd">
        <g id="加载_刷新" fill-rule="nonzero">
            <rect id="矩形" fill="#000000" opacity="0" x="0" y="0" width="24" height="24"></rect>
            <path d="M15.8,20.6 L13.5,18.2 C16.5,17.8 18.9,15.3 18.9,12.3 C18.9,9.40000001 16.7,6.9 13.8,6.40000001 L11.7,4.30000001 L12.6,4.30000001 C17.2,4.30000001 20.9,7.90000001 20.9,12.3 C20.9,15.3 19.1,18 16.6,19.3 L16.6,21.3 L15.8,20.6 L15.8,20.6 Z M13.6,20.2 C13.3,20.2 12.9,20.3 12.5,20.3 C7.89999998,20.3 4.2,16.7 4.2,12.3 C4.2,9.3 6,6.6 8.50000001,5.29999999 L8.50000001,3 L9.79999999,4.30000001 L11.8,6.3 C8.7,6.6 6.3,9.19999999 6.3,12.3 C6.3,15.3 8.59999999,17.8 11.6,18.2 L13.6,20.2 L13.6,20.2 Z" id="形状" fill="#FFFFFF" opacity="0.699999988"></path>
        </g>
    </g>
</svg>