<?xml version="1.0" encoding="UTF-8"?>
<svg width="24px" height="24px" viewBox="0 0 24 24" version="1.1" xmlns="http://www.w3.org/2000/svg" xmlns:xlink="http://www.w3.org/1999/xlink">
    <title>search-icon</title>
    <g id="页面-1" stroke="none" stroke-width="1" fill="none" fill-rule="evenodd">
        <g id="menu-toggle-icon" transform="translate(-394.000000, -33.000000)" fill-rule="nonzero">
            <g id="search-icon" transform="translate(394.000000, 33.000000)">
                <rect id="矩形" fill="#000000" opacity="0" x="0" y="0" width="24" height="24"></rect>
                <path d="M20.7844119,19.7459788 L17.6520578,16.6199936 L17.6507006,16.618708 C18.1874508,15.9845426 18.6250866,15.2730691 18.9487841,14.5083868 C19.3818007,13.4866623 19.6013684,12.4017386 19.6013684,11.2837575 C19.6013684,10.1657535 19.3818007,9.08085276 18.9487841,8.05912827 C18.5306738,7.07261903 17.9322626,6.18679696 17.1701819,5.42627141 C16.4080783,4.66574586 15.5204449,4.06853277 14.5319185,3.65127562 C13.5081049,3.2191197 12.4209628,3 11.3006957,3 C10.1804057,3 9.09328658,3.2191197 8.06947291,3.65127562 C7.08094651,4.06853277 6.19331316,4.6657229 5.43123252,5.42627141 C4.66912889,6.18679696 4.07071766,7.07264199 3.65260731,8.05912827 C3.21956774,9.08085276 3,10.1657765 3,11.2837575 C3,12.4017386 3.21956774,13.4866623 3.65260731,14.5083868 C4.07071766,15.494919 4.66912889,16.380741 5.43123252,17.1412666 C6.19331316,17.9017921 7.08096952,18.4990052 8.06947291,18.9162394 C9.09328658,19.3483724 10.1804287,19.5674921 11.3006957,19.5674921 C12.4209628,19.5674921 13.5081049,19.3483724 14.5319185,18.9162394 C15.285971,18.5979706 15.9810656,18.1746759 16.6067589,17.6543671 C16.6082081,17.6558363 16.6095653,17.6573973 16.6110376,17.6588436 L19.7433916,20.7848288 C19.8871631,20.9283069 20.0755151,21 20.2639132,21 C20.4522653,21 20.6407094,20.928261 20.7844119,20.7848518 C21.0718627,20.4979875 21.0718627,20.0328431 20.7844119,19.7459788 Z M11.3006957,18.1512833 C9.46256064,18.1512833 7.73445096,17.4369232 6.43468815,16.1398356 C5.13492534,14.8427251 4.41912761,13.1181417 4.41912761,11.2837575 C4.41912761,9.44937329 5.13492534,7.72478995 6.43468815,6.4276794 C7.73442796,5.13056886 9.46253764,4.41623177 11.3006957,4.41623177 C13.1388538,4.41623177 14.8669405,5.13056886 16.1667033,6.4276794 C17.4664431,7.72476699 18.1822638,9.44935033 18.1822638,11.2837575 C18.1822638,13.1181647 17.4664431,14.8427251 16.1667033,16.1398356 C14.8669405,17.4369232 13.1388308,18.1512833 11.3006957,18.1512833 Z" id="形状" fill="#242448"></path>
            </g>
        </g>
    </g>
</svg>