<?xml version="1.0" encoding="UTF-8"?>
<svg width="24px" height="24px" viewBox="0 0 24 24" version="1.1" xmlns="http://www.w3.org/2000/svg" xmlns:xlink="http://www.w3.org/1999/xlink">
    <title>success-icon</title>
    <g id="页面-1" stroke="none" stroke-width="1" fill="none" fill-rule="evenodd">
        <g id="menu-toggle-icon" transform="translate(-334.000000, -116.000000)" fill-rule="nonzero">
            <g id="success-icon" transform="translate(334.000000, 116.000000)">
                <rect id="矩形" fill="#000000" opacity="0" x="0" y="0" width="24" height="24"></rect>
                <path d="M12,0.857132812 C15.9809631,0.857132812 19.6595246,2.98095123 21.6500062,6.42856636 C23.6404877,9.87618149 23.6404877,14.1238185 21.6500062,17.5714336 C19.6595246,21.0190488 15.9809631,23.1428672 12,23.1428672 C5.84596438,23.1428672 0.857132812,18.1540356 0.857132812,12 C0.857132812,5.84596438 5.84596438,0.857132812 12,0.857132812 L12,0.857132812 Z M12,2.57142188 C8.63149344,2.57142188 5.518865,4.36849865 3.83461171,7.2857109 C2.15035841,10.2029231 2.15035841,13.7970769 3.83461171,16.7142891 C5.518865,19.6315013 8.63149344,21.4285781 12,21.4285781 C17.2072599,21.4285781 21.4285781,17.2072599 21.4285781,12 C21.4285781,6.79274009 17.2072599,2.57142188 12,2.57142188 Z M17.1,7.49142187 L18.312,8.70513281 L10.1331328,16.8822891 L9.324,16.0765781 L5.688,12.4388437 L6.9,11.2268672 L10.1331328,14.46 L17.1,7.49142187 Z" id="形状" fill="#48E5BA"></path>
            </g>
        </g>
    </g>
</svg>