<?xml version="1.0"?>
<svg xmlns="http://www.w3.org/2000/svg" xmlns:xlink="http://www.w3.org/1999/xlink" xmlns:svgjs="http://svgjs.com/svgjs" version="1.1" width="512" height="512" x="0" y="0" viewBox="0 0 512 512" style="enable-background:new 0 0 512 512" xml:space="preserve" class=""><g><script/><path xmlns="http://www.w3.org/2000/svg" d="m254.984375 140c11.996094 0 22.820313 6.824219 27.570313 17.382812 3.335937 7.410157 10.621093 11.796876 18.25 11.796876 2.742187 0 5.535156-.566407 8.195312-1.765626 10.074219-4.535156 14.5625-16.375 10.03125-26.445312-11.199219-24.890625-36.339844-40.96875-64.046875-40.96875-38.597656 0-70 30.832031-70 68.730469v27.773437c-24.257813 3.421875-42.984375 24.308594-42.984375 49.496094v114c0 11.046875 8.953125 20 20 20h186c11.046875 0 20-8.953125 20-20v-114c0-27.570312-22.429688-50-50-50h-93.015625v-27.269531c0-15.839844 13.457031-28.730469 30-28.730469zm73.015625 106v94h-146v-94c0-5.515625 4.484375-10 10-10h126c5.515625 0 10 4.484375 10 10zm-93 42c0-11.046875 8.953125-20 20-20s20 8.953125 20 20-8.953125 20-20 20-20-8.953125-20-20zm277-32c0 50.53125-15 99.675781-43.375 142.117188-6.136719 9.179687-18.558594 11.648437-27.742188 5.507812-9.183593-6.136719-11.648437-18.558594-5.511718-27.742188 23.964844-35.839843 36.628906-77.292968 36.628906-119.882812 0-119.101562-96.898438-216-216-216s-216 96.898438-216 216 96.898438 216 216 216c39.507812 0 78.144531-10.757812 111.738281-31.105469 9.445313-5.722656 21.742188-2.703125 27.464844 6.742188 5.726563 9.449219 2.707031 21.746093-6.742187 27.46875-39.84375 24.136719-85.648438 36.894531-132.460938 36.894531-68.378906 0-132.667969-26.628906-181.019531-74.980469-48.351563-48.351562-74.980469-112.640625-74.980469-181.019531s26.628906-132.667969 74.980469-181.019531c48.351562-48.351563 112.640625-74.980469 181.019531-74.980469s132.667969 26.628906 181.019531 74.980469c48.351563 48.351562 74.980469 112.640625 74.980469 181.019531zm0 0" fill="#ffcd58" data-original="#000000" style="" class=""/></g></svg>
